<svg width="48" height="48" viewBox="0 0 48 48" fill="none" xmlns="http://www.w3.org/2000/svg">
<g clip-path="url(#clip0_80_1303)">
<path d="M16 32C15.45 32 14.975 31.8083 14.575 31.425C14.1917 31.025 14 30.55 14 30V18C14 17.45 14.1917 16.9833 14.575 16.6C14.975 16.2 15.45 16 16 16H28C28.55 16 29.0167 16.2 29.4 16.6C29.8 16.9833 30 17.45 30 18V22.5L34 18.5V29.5L30 25.5V30C30 30.55 29.8 31.025 29.4 31.425C29.0167 31.8083 28.55 32 28 32H16ZM16 30H28V18H16V30ZM16 30V18V30Z" fill="#1F2619"/>
</g>
<defs>
<clipPath id="clip0_80_1303">
<rect x="4" y="4" width="40" height="40" rx="20" fill="white"/>
</clipPath>
</defs>
</svg>
